<?xml version="1.0" standalone="no"?><!DOCTYPE svg PUBLIC "-//W3C//DTD SVG 1.1//EN" "http://www.w3.org/Graphics/SVG/1.1/DTD/svg11.dtd"><svg t="1621037037222" class="icon" viewBox="0 0 1417 1024" version="1.1" xmlns="http://www.w3.org/2000/svg" p-id="10033" xmlns:xlink="http://www.w3.org/1999/xlink" width="276.7578125" height="200"><defs><style type="text/css"></style></defs><path d="M649.846154 0c203.224615 0 370.215385 152.576 389.513846 347.687385l19.298462-1.575385 19.534769-0.551385C1265.742769 345.560615 1417.846154 495.379692 1417.846154 680.172308c0 184.871385-152.024615 334.690462-339.731692 334.690461a343.433846 343.433846 0 0 1-125.873231-23.788307 54.350769 54.350769 0 0 1-30.877539-70.892308 55.689846 55.689846 0 0 1 71.916308-30.404923c26.781538 10.476308 55.374769 15.990154 84.913231 15.990154 126.424615 0 228.903385-100.982154 228.903384-225.595077 0-124.455385-102.478769-225.516308-228.982153-225.516308-25.993846 0-51.357538 4.253538-75.382154 12.603077a55.138462 55.138462 0 0 1-73.412923-56.477539 276.48 276.48 0 0 0 1.102769-25.206153c0-152.654769-125.558154-276.48-280.576-276.48-155.017846 0-280.654769 123.825231-280.654769 276.48 0 54.508308 16.068923 106.574769 45.686153 151.158153 32.689231 49.309538-26.151385 107.677538-76.406153 75.618462l-14.651077-8.113231a148.716308 148.716308 0 0 0-65.378462-14.966154c-81.526154 0-147.692308 65.142154-147.692308 145.48677 0 79.556923 67.426462 145.486769 147.692308 145.486769 80.817231 0 232.526769-85.700923 443.785846-258.205539a51.751385 51.751385 0 0 1 17.48677-9.609846 57.186462 57.186462 0 0 1 8.743384-2.126769l-5.513846 1.102769a55.926154 55.926154 0 0 1 4.332308-0.945231l1.181538-0.157538a57.028923 57.028923 0 0 1 36.706462 6.459077 48.915692 48.915692 0 0 1 6.774154 4.568615c2.993231 2.284308 5.750154 4.962462 8.270769 7.876923l-5.671385-5.828923a54.744615 54.744615 0 0 1 17.723077 31.744l-1.575385-6.380307c0.393846 1.181538 0.787692 2.363077 1.024 3.623384l0.551385 2.756923 13.469539 79.872 190.070153-148.48a55.926154 55.926154 0 0 1 77.824 8.900923c18.983385 23.630769 14.966154 57.895385-8.979692 76.642462l-263.640615 205.902769c-33.083077 25.836308-82.077538 7.246769-89.009231-33.792l-13.390769-78.926769c-193.063385 149.188923-337.132308 224.177231-440.162462 224.177231C117.208615 989.341538 0 874.732308 0 734.759385c0-140.603077 115.790769-254.582154 258.441846-254.582154l11.972923 0.236307c-7.876923-30.72-11.972923-62.464-11.972923-94.838153C258.441846 172.662154 433.703385 0 649.846154 0z" fill="#d81e06" p-id="10034"></path></svg>