<?xml version="1.0" encoding="utf-8"?>
<!-- Generator: Adobe Illustrator 16.0.0, SVG Export Plug-In . SVG Version: 6.00 Build 0)  -->
<!DOCTYPE svg PUBLIC "-//W3C//DTD SVG 1.1//EN" "http://www.w3.org/Graphics/SVG/1.1/DTD/svg11.dtd">
<svg version="1.1" id="图层_1" xmlns="http://www.w3.org/2000/svg" xmlns:xlink="http://www.w3.org/1999/xlink" x="0px" y="0px"
	 width="600px" height="300px" viewBox="0 0 600 300" enable-background="new 0 0 600 300" xml:space="preserve">
<path fill="#2EB3E9" d="M100.22,68.699c28.752,0,52.378,21.586,55.109,49.191l2.73-0.223l2.763-0.078
	c26.535,0,48.055,21.197,48.055,47.34c0,26.157-21.509,47.353-48.065,47.353c-6.095,0.006-12.136-1.136-17.809-3.364
	c-3.961-1.53-5.932-5.983-4.402-9.944c0.011-0.028,0.022-0.058,0.033-0.086c1.651-3.97,6.178-5.884,10.175-4.302
	c3.789,1.481,7.834,2.263,12.013,2.263c17.887,0,32.386-14.288,32.386-31.919c0-17.606-14.499-31.905-32.397-31.905
	c-3.678,0-7.266,0.602-10.666,1.783c-4.059,1.442-8.52-0.679-9.962-4.74c-0.37-1.041-0.514-2.149-0.424-3.251
	c0.106-1.186,0.159-2.375,0.156-3.566c0-21.598-17.764-39.117-39.696-39.117s-39.707,17.519-39.707,39.117
	c0,7.712,2.273,15.078,6.463,21.385c4.625,6.977-3.7,15.235-10.81,10.699l-2.073-1.147c-2.882-1.4-6.045-2.125-9.25-2.117
	c-11.535,0-20.896,9.217-20.896,20.584c0,11.255,9.54,20.583,20.896,20.583c11.434,0,32.897-12.125,62.787-36.531
	c0.729-0.61,1.569-1.071,2.474-1.359c0.404-0.134,0.817-0.233,1.237-0.301l-0.78,0.156c0.202-0.054,0.407-0.098,0.613-0.134
	l0.167-0.022c1.784-0.286,3.613,0.036,5.193,0.913c0.337,0.189,0.657,0.404,0.958,0.646c0.423,0.323,0.813,0.703,1.17,1.115
	l-0.802-0.825c1.323,1.167,2.208,2.752,2.507,4.491l-0.223-0.903c0.056,0.168,0.111,0.335,0.145,0.514l0.078,0.39l1.906,11.301
	l26.891-21.008c3.4-2.649,8.296-2.089,11.011,1.26c2.686,3.344,2.117,8.191-1.271,10.844l-37.3,29.131
	c-4.681,3.655-11.612,1.025-12.593-4.781l-1.895-11.166c-27.315,21.106-47.698,31.717-62.274,31.717
	c-19.982-0.012-36.565-16.227-36.565-36.029c0-19.894,16.382-36.019,36.565-36.019l1.694,0.032
	c-1.115-4.346-1.694-8.837-1.694-13.417C44.844,93.127,69.64,68.699,100.22,68.699z"/>
<g>
	<path fill="#2EB3E9" d="M270.532,143.729c-2.568,4.28-4.967,8.175-7.189,11.683c-2.227,3.51-4.878,7.574-7.96,12.195
		c7.531-0.682,13.095-1.195,16.69-1.539c-1.713-3.764-3.081-6.588-4.108-8.475c1.368-0.854,2.909-1.797,4.622-2.824
		c2.909,5.309,5.649,11.213,8.217,17.717c-1.713,0.514-3.426,1.369-5.136,2.568c-0.686-2.055-1.372-3.764-2.054-5.135
		c-3.427,0.512-7.575,1.199-12.454,2.053c-4.878,0.855-8.774,1.967-11.683,3.338c-1.199-2.398-2.227-4.533-3.081-6.418
		c2.736-1.369,5.264-3.68,7.575-6.934c2.311-3.25,5.007-7.703,8.088-13.352c-5.822,0.346-10.187,1.2-13.095,2.569
		c-0.859-2.223-1.713-4.535-2.568-6.934c1.196-0.341,2.351-1.323,3.466-2.952c1.111-1.625,2.825-4.879,5.135-9.757
		c2.311-4.879,3.892-8.943,4.75-12.197c2.395,1.027,4.449,1.97,6.163,2.825c-1.886,2.227-4.108,5.777-6.676,10.656
		s-4.71,8.858-6.419,11.939c2.567,0,6.419-0.084,11.554-0.257c2.736-4.79,4.622-8.898,5.649-12.324
		c2.223,1.54,4.193,2.74,5.906,3.595C274.897,136.795,273.1,139.452,270.532,143.729z M285.424,171.203
		c4.622,0.172,7.531,0,8.73-0.514c1.196-0.514-0.772-2.488-0.427-7.025c0.341-4.533,3.677-16.854,4.537-35.855h-10.015
		c-5.136,0-9.673,0.088-13.609,0.256v-5.135c5.649,0.173,10.183,0.257,13.609,0.257h15.92c-1.2,22.769-1.026,36.286-1.283,40.477
		c-0.257,4.197-1.715,7.197-2.568,9.08c-0.858,1.881-2.311,3.08-4.365,3.594c-2.054,0.514-4.794,0.855-8.217,1.027
		C287.222,174.967,286.452,172.912,285.424,171.203z"/>
	<path fill="#2EB3E9" d="M339.432,144.768v-16.434c0-3.081-0.257-5.817-0.771-8.217h6.162c-0.174,3.254-0.256,5.994-0.256,8.217
		v16.434H361c3.25,0,6.676-0.085,10.271-0.257v5.135c-3.595-0.341-7.021-0.514-10.271-0.514h-12.068
		c2.736,4.622,5.86,8.346,9.372,11.17c3.507,2.824,8.089,5.096,13.737,6.805c-2.228,2.912-3.255,5.051-3.081,6.418
		c-5.823-2.736-10.487-5.732-13.994-8.986c-3.512-3.25-6.979-8.045-10.398-14.379l2.054,23.53c0,1.883-1.972,3.432-1.798,7.025
		h-5.648c0.168-3.594-2.14-5.828-2.14-7.709l2.396-23.103h-0.771c-1.886,5.65-4.41,10.443-7.574,14.378
		c-3.17,3.941-8.089,7.619-14.765,11.041c-0.514-1.367-1.798-3.248-3.852-5.648c4.79-1.367,8.987-3.764,12.582-7.189
		c3.595-3.422,6.502-7.871,8.729-13.352h-12.581c-2.399,0-5.48,0.173-9.244,0.514v-5.135c3.764,0.172,6.845,0.257,9.244,0.257
		H339.432z M319.403,127.051c1.709-1.027,3.338-2.054,4.879-3.082c3.081,4.108,5.817,8.39,8.217,12.839
		c-2.055,0.858-3.852,1.886-5.393,3.081C325.053,135.44,322.484,131.159,319.403,127.051z M359.203,123.199
		c2.054,1.199,4.108,2.311,6.162,3.338c-1.201,1.027-2.613,2.784-4.236,5.264c-1.629,2.483-3.384,5.179-5.265,8.088
		c-1.54-1.027-3.169-1.966-4.878-2.824C354.235,132.957,356.975,128.334,359.203,123.199z"/>
	<path fill="#2EB3E9" d="M395.278,174.811c-5.052,0.598-8.088,1.066-9.115,1.412c-0.687-1.887-1.457-3.764-2.311-5.65
		c1.195-0.34,2.824-1.709,4.879-4.107c2.054-2.395,4.493-5.861,7.317-10.398c2.825-4.535,4.405-7.917,4.751-10.143h-13.353
		c-2.054,0-4.879,0.088-8.474,0.257v-4.879c3.595,0.173,6.677,0.257,9.244,0.257h40.056c2.223,0,4.79-0.084,7.703-0.257v4.879
		c-2.741-0.169-5.392-0.257-7.96-0.257h-25.934c1.027,0.686,2.736,1.797,5.136,3.338c-1.201,1.199-2.271,2.483-3.21,3.852
		c-0.944,1.371-2.399,3.51-4.365,6.418c-1.971,2.914-4.838,6.592-8.602,11.041c5.649-0.514,16.088-1.283,31.326-2.311
		c-3.081-4.107-5.906-7.529-8.474-10.27c1.367-1.027,2.65-2.139,3.852-3.34c8.043,9.418,13.178,15.752,15.406,19.002
		c-1.201,0.854-2.656,1.965-4.365,3.338c-1.201-1.885-2.399-3.51-3.595-4.879C410.3,173.309,400.326,174.207,395.278,174.811z
		 M421.084,124.098c2.567,0,5.219-0.084,7.96-0.257v5.136c-2.567-0.168-5.224-0.257-7.96-0.257h-26.961
		c-2.054,0-4.365,0.088-6.933,0.257v-5.136c2.567,0.173,4.79,0.257,6.676,0.257H421.084z"/>
	<path fill="#2EB3E9" d="M496.061,174.49c2.394,0,5.047-0.088,7.96-0.258v4.623c-5.136-0.174-10.103-0.258-14.893-0.258h-33.637
		c-5.31,0-9.675,0.084-13.096,0.258v-4.623c2.908,0.17,5.562,0.258,7.96,0.258v-7.703c0-2.736-0.088-5.393-0.257-7.961h46.219
		c-0.174,2.568-0.257,5.225-0.257,7.961V174.49z M486.175,151.895c0.939-0.168,1.412-0.855,1.412-2.054v-5.649h-26.96
		c-0.514,2.913-1.284,5.393-2.312,7.446c-1.027,2.055-2.741,4.281-5.135,6.678c-1.201-1.369-2.825-2.48-4.879-3.338
		c2.223-1.541,3.892-3.166,5.007-4.879c1.11-1.709,1.838-3.68,2.183-5.906c-4.622,0-8.217,0.089-10.784,0.257v-4.878
		c3.421,0.172,7.101,0.257,11.041,0.257v-7.19c0-2.222-0.089-4.533-0.257-6.932h10.014c0.683-2.054,1.196-4.193,1.541-6.419
		c2.394,0.514,4.533,0.943,6.419,1.284c-0.514,0.514-0.987,1.284-1.412,2.311c-0.431,1.027-0.815,1.97-1.155,2.825h21.825
		c-0.174,2.74-0.257,5.564-0.257,8.473v5.649c3.935,0,7.189-0.085,9.757-0.257v4.878c-2.567-0.168-5.905-0.257-10.014-0.257v6.677
		c0,2.912-0.858,4.666-2.567,5.263c-1.715,0.602-3.94,1.072-6.676,1.412c-0.174-1.541-0.944-3.338-2.312-5.393
		C483.391,152.15,485.23,152.066,486.175,151.895z M464.222,162.936h-8.73v11.555h8.73V162.936z M487.844,139.827v-9.758H461.14
		v9.758H487.844z M465.42,149.646c0.853-1.368,1.54-2.651,2.054-3.852c3.421,1.541,5.967,0.895,9.223,2.604
		c-1.027,1.026-1.18,4.757-2.033,6.64C472.264,152.984,469.183,151.188,465.42,149.646z M468.586,134.691
		c1.027-1.195,1.881-2.396,2.568-3.595c2.394,1.199,5.047,2.656,7.96,4.365c-1.027,1.199-1.972,2.483-2.825,3.852
		C473.722,137.431,471.154,135.89,468.586,134.691z M477.573,162.936h-8.987v11.555h8.987V162.936z M490.925,162.936h-8.986v11.555
		h8.986V162.936z"/>
</g>
</svg>
